<?xml version="1.0" standalone="no"?>
<!DOCTYPE svg PUBLIC "-//W3C//DTD SVG 20010904//EN"
 "http://www.w3.org/TR/2001/REC-SVG-20010904/DTD/svg10.dtd">
<svg version="1.0" xmlns="http://www.w3.org/2000/svg"
 width="334.000000pt" height="163.000000pt" viewBox="0 0 334.000000 163.000000"
 preserveAspectRatio="xMidYMid meet">

<g transform="translate(0.000000,163.000000) scale(0.100000,-0.100000)"
fill="#000000" stroke="none">
<path d="M174 1488 c-27 -35 -64 -82 -82 -105 l-33 -43 39 0 c37 0 43 4 121
99 44 55 81 102 81 105 0 4 -17 6 -38 6 -36 0 -43 -5 -88 -62z"/>
<path d="M264 1448 l-82 -103 335 -5 c317 -5 335 -6 349 -25 27 -36 0 -169
-46 -233 l-30 -42 28 0 c16 0 37 -9 47 -19 15 -18 16 -28 6 -102 -12 -90 -41
-152 -88 -189 l-28 -21 97 4 c85 4 106 8 163 36 50 25 70 42 89 74 64 109 33
252 -66 303 l-29 15 33 22 c64 43 93 139 68 227 -12 46 -71 103 -135 132 -48
22 -62 23 -340 26 l-290 2 -81 -102z"/>
<path d="M1180 1130 l0 -420 125 0 124 0 3 153 3 152 212 5 212 5 75 97 76 98
-290 0 -290 0 0 60 0 60 198 0 199 0 69 93 c39 50 74 98 78 105 6 9 -76 12
-393 12 l-401 0 0 -420z"/>
<path d="M1953 1458 c-94 -127 -91 -118 -41 -118 46 0 52 7 171 171 l28 39
-44 0 c-44 0 -45 0 -114 -92z"/>
<path d="M2737 1283 l-189 -267 16 -50 c23 -73 29 -153 18 -213 -5 -29 -6 -53
-2 -53 4 0 25 13 47 29 43 31 32 16 506 689 48 68 87 125 87 127 0 3 -66 5
-147 5 l-148 0 -188 -267z"/>
<path d="M2066 1438 c-42 -57 -76 -107 -76 -113 0 -9 298 -448 367 -540 39
-52 85 -82 140 -91 40 -6 42 -5 50 22 12 45 8 185 -6 229 -8 21 -57 102 -111
180 -53 77 -138 202 -188 278 -51 75 -94 137 -96 137 -2 0 -38 -46 -80 -102z"/>
<path d="M50 965 l0 -255 313 0 c308 0 313 0 364 24 56 27 99 85 110 150 l6
36 -267 0 -266 0 0 60 0 60 206 0 c241 0 254 4 298 92 48 96 80 88 -369 88
l-395 0 0 -255z"/>
<path d="M665 593 c-11 -3 -26 -10 -32 -15 -17 -13 -17 -130 -1 -146 8 -8 45
-12 99 -12 100 0 119 10 119 66 l0 34 -60 0 c-47 0 -60 -3 -60 -15 0 -11 11
-15 36 -15 28 0 35 -3 32 -17 -2 -14 -15 -19 -56 -21 -31 -2 -60 2 -68 9 -18
15 -18 73 1 89 14 12 71 10 143 -5 34 -8 40 0 19 28 -9 13 -31 19 -82 22 -39
2 -79 1 -90 -2z"/>
<path d="M1390 592 c-19 -6 -26 -17 -31 -47 -8 -44 -2 -93 14 -112 13 -17 188
-18 205 -1 14 14 16 126 3 147 -10 16 -149 25 -191 13z m118 -38 c33 -7 48
-39 37 -75 -6 -18 -14 -20 -73 -17 l-67 3 -3 38 c-3 31 1 39 20 46 28 12 47
13 86 5z"/>
<path d="M2182 593 c-28 -6 -44 -35 -36 -68 6 -26 26 -32 114 -37 32 -2 45 -7
45 -18 0 -18 -92 -27 -108 -11 -11 11 -57 15 -57 5 0 -3 5 -14 10 -25 9 -16
22 -19 93 -19 45 0 88 4 95 9 8 5 12 23 10 47 l-3 39 -77 9 c-54 6 -78 13 -78
23 0 9 16 13 55 13 30 0 55 -4 55 -10 0 -5 12 -10 26 -10 19 0 25 5 22 17 -7
35 -84 52 -166 36z"/>
<path d="M2765 594 c-32 -9 -45 -34 -45 -90 0 -76 11 -84 125 -84 83 0 96 2
105 19 16 31 13 126 -5 141 -16 13 -145 23 -180 14z m114 -40 c30 -6 32 -9 29
-48 l-3 -41 -65 0 -65 0 -3 38 c-3 31 1 39 20 46 28 12 47 13 87 5z"/>
<path d="M50 505 l0 -85 98 0 c63 0 102 4 110 12 13 13 16 51 5 62 -5 4 -8 26
-8 49 l0 42 -102 3 -103 3 0 -86z m165 35 c0 -11 -14 -16 -57 -18 -53 -3 -58
-1 -58 18 0 19 5 21 58 18 43 -2 57 -7 57 -18z m5 -65 c0 -12 -13 -15 -60 -15
-47 0 -60 3 -60 15 0 12 13 15 60 15 47 0 60 -3 60 -15z"/>
<path d="M300 505 c0 -78 2 -85 20 -85 13 0 20 7 20 20 0 18 7 20 60 20 53 0
60 -2 60 -20 0 -15 7 -20 25 -20 20 0 25 5 25 24 0 14 -5 28 -10 31 -8 5 -8
11 0 20 6 8 10 31 8 52 l-3 38 -102 3 -103 3 0 -86z m158 23 c-3 -21 -9 -23
-58 -23 -49 0 -55 2 -58 23 -3 21 0 22 58 22 58 0 61 -1 58 -22z"/>
<path d="M540 505 c0 -84 0 -85 25 -85 25 0 25 1 25 85 0 84 0 85 -25 85 -25
0 -25 -1 -25 -85z"/>
<path d="M880 505 c0 -77 2 -85 19 -85 15 0 21 8 23 33 3 32 3 32 66 35 l62 3
0 -36 c0 -32 2 -35 30 -35 l30 0 0 85 0 85 -30 0 c-27 0 -30 -3 -30 -30 l0
-30 -65 0 -65 0 0 30 c0 23 -4 30 -20 30 -18 0 -20 -7 -20 -85z"/>
<path d="M1130 570 c0 -17 7 -20 40 -20 l40 0 0 -66 c0 -62 1 -65 23 -62 20 3
22 9 25 66 l3 62 39 0 c33 0 40 3 40 20 0 19 -7 20 -105 20 -98 0 -105 -1
-105 -20z"/>
<path d="M1690 505 c0 -84 0 -85 25 -85 21 0 25 5 25 30 l0 30 65 0 c58 0 65
2 65 20 0 18 -7 20 -65 20 -58 0 -65 2 -65 20 0 18 7 20 65 20 51 0 65 3 65
15 0 12 -17 15 -90 15 l-90 0 0 -85z"/>
<path d="M1912 505 l-42 -85 29 0 c16 0 31 6 35 15 4 11 21 15 66 15 45 0 62
-4 66 -15 4 -9 19 -15 35 -15 l29 0 -42 85 -42 85 -46 0 -45 0 -43 -85z m111
24 c24 -44 22 -49 -23 -49 -22 0 -40 4 -40 9 0 12 33 71 40 71 3 0 13 -14 23
-31z"/>
<path d="M2380 505 c0 -84 0 -85 25 -85 22 0 25 4 25 35 l0 35 65 0 65 0 0
-35 c0 -31 3 -35 25 -35 25 0 25 1 25 85 0 84 0 85 -25 85 -21 0 -25 -5 -25
-30 l0 -30 -65 0 -65 0 0 30 c0 25 -4 30 -25 30 -25 0 -25 -1 -25 -85z"/>
<path d="M2640 505 c0 -84 0 -85 25 -85 25 0 25 1 25 85 0 84 0 85 -25 85 -25
0 -25 -1 -25 -85z"/>
<path d="M2990 505 c0 -84 0 -85 25 -85 23 0 24 3 27 68 l3 67 50 -67 c48 -65
51 -68 92 -68 l43 0 0 85 c0 84 0 85 -25 85 -23 0 -24 -3 -27 -66 l-3 -67 -45
66 c-45 66 -45 67 -92 67 l-48 0 0 -85z"/>
<path d="M1150 322 c0 -5 14 -28 30 -50 42 -58 67 -56 103 8 21 38 25 50 13
50 -8 0 -24 -16 -36 -35 -12 -19 -26 -35 -31 -35 -5 0 -19 16 -30 35 -19 32
-49 48 -49 27z"/>
<path d="M1336 285 c-30 -48 -28 -67 4 -47 24 14 110 16 110 2 0 -5 7 -10 15
-10 21 0 19 15 -11 60 -22 32 -33 40 -58 40 -26 0 -36 -7 -60 -45z m69 -13
c-35 -4 -39 1 -24 29 l12 23 20 -25 19 -24 -27 -3z"/>
<path d="M1506 313 c-3 -10 -4 -31 -2 -48 3 -29 5 -30 65 -33 47 -2 61 0 61
11 0 10 -12 14 -42 13 -43 -1 -43 -1 -46 37 -3 39 -26 52 -36 20z"/>
<path d="M1660 280 l0 -51 63 3 c68 3 79 23 12 23 -39 0 -40 1 -43 38 -2 24
-8 37 -18 37 -10 0 -14 -13 -14 -50z"/>
<path d="M1802 283 l3 -48 59 -3 c32 -2 64 2 69 7 8 8 -6 11 -46 11 -43 0 -57
4 -57 14 0 11 15 16 53 19 l52 3 -53 2 c-71 3 -65 25 9 33 54 6 54 6 -19 7
l-73 2 3 -47z"/>
<path d="M2007 303 c18 -16 33 -37 35 -48 4 -25 30 -26 34 -1 1 10 15 31 30
47 26 27 26 29 7 29 -11 0 -28 -9 -38 -20 l-18 -20 -22 20 c-12 11 -30 20 -40
20 -16 0 -14 -5 12 -27z"/>
<path d="M70 290 c0 -18 70 -21 519 -18 353 2 455 6 459 16 3 9 -99 12 -487
12 -305 0 -491 -4 -491 -10z"/>
<path d="M2235 290 c-3 -6 0 -12 7 -15 26 -10 968 0 971 10 3 14 -969 19 -978
5z"/>
<path d="M536 157 c-11 -8 -17 -23 -14 -38 3 -22 8 -24 61 -27 42 -2 57 -7 57
-17 0 -19 -62 -20 -90 -3 -22 14 -35 6 -27 -17 5 -11 22 -15 76 -15 58 0 70 3
73 17 9 40 -3 53 -47 53 -50 0 -75 8 -75 22 0 7 22 9 60 5 60 -5 76 4 41 23
-27 14 -94 13 -115 -3z"/>
<path d="M720 163 c-22 -9 -30 -24 -30 -63 0 -56 8 -61 91 -58 61 2 74 6 77
21 4 19 -27 24 -45 6 -6 -6 -26 -9 -44 -7 -31 3 -34 6 -37 41 l-3 37 45 0 c25
0 46 -4 46 -10 0 -5 9 -10 19 -10 27 0 16 36 -12 44 -27 7 -87 6 -107 -1z"/>
<path d="M897 163 c-15 -4 -17 -14 -15 -61 l3 -57 80 0 80 0 3 50 c3 38 -1 52
-14 62 -17 12 -99 16 -137 6z m121 -51 c5 -31 -15 -52 -48 -52 -45 0 -60 10
-60 39 0 38 7 42 60 39 38 -3 45 -6 48 -26z"/>
<path d="M1846 157 c-13 -10 -17 -24 -14 -62 l3 -50 80 0 80 0 3 56 c3 52 1
57 -20 63 -40 10 -113 7 -132 -7z m122 -51 c4 -33 -10 -46 -53 -46 -36 0 -55
16 -55 45 0 31 9 36 60 33 41 -3 45 -5 48 -32z"/>
<path d="M2412 161 c-8 -5 -12 -21 -10 -37 3 -27 6 -29 58 -34 65 -6 73 -24
13 -28 -26 -2 -43 1 -43 7 0 6 -9 11 -20 11 -21 0 -25 -7 -11 -28 5 -9 28 -12
77 -10 l69 3 0 30 c0 27 -3 30 -35 33 -55 4 -80 11 -80 24 0 7 18 9 55 5 42
-4 55 -2 55 8 0 7 -7 16 -16 19 -23 9 -97 7 -112 -3z"/>
<path d="M270 100 l0 -60 73 0 c82 0 97 9 97 56 0 61 -5 64 -91 64 l-79 0 0
-60z m136 16 c9 -37 -2 -46 -57 -46 l-49 0 0 35 0 35 50 0 c44 0 50 -3 56 -24z"/>
<path d="M460 100 c0 -53 2 -60 20 -60 18 0 20 7 20 60 0 53 -2 60 -20 60 -18
0 -20 -7 -20 -60z"/>
<path d="M1070 155 c0 -2 12 -29 27 -60 24 -49 31 -55 58 -55 27 0 34 6 58 55
31 65 32 65 12 65 -8 0 -26 -20 -41 -45 -14 -25 -29 -45 -33 -45 -4 0 -17 20
-29 45 -12 25 -29 45 -37 45 -8 0 -15 -2 -15 -5z"/>
<path d="M1260 100 l0 -60 70 0 c81 0 95 17 18 22 -74 4 -77 28 -4 28 31 0 56
5 56 10 0 6 -25 10 -55 10 -42 0 -55 3 -55 15 0 12 13 15 55 15 30 0 55 5 55
10 0 6 -30 10 -70 10 l-70 0 0 -60z"/>
<path d="M1420 100 c0 -53 2 -60 20 -60 11 0 20 7 20 15 0 11 11 15 39 15 25
0 41 -5 45 -15 3 -8 12 -15 19 -15 10 0 14 16 15 60 l1 60 -80 0 -79 0 0 -60z
m125 20 c0 -10 -13 -16 -42 -18 -38 -3 -43 -1 -43 18 0 19 5 21 43 18 29 -2
42 -8 42 -18z"/>
<path d="M1679 125 c17 -20 31 -47 31 -60 0 -34 40 -36 40 -2 1 12 14 38 31
57 26 30 27 36 12 39 -9 2 -27 -8 -39 -22 l-22 -26 -23 25 c-12 13 -31 24 -42
24 -17 0 -15 -4 12 -35z"/>
<path d="M2032 103 l3 -58 75 0 75 0 3 58 c2 46 0 57 -13 57 -11 0 -15 -11
-15 -44 0 -50 -17 -63 -70 -51 -28 6 -30 10 -30 51 0 33 -4 44 -15 44 -13 0
-15 -11 -13 -57z"/>
<path d="M2220 100 c0 -47 3 -60 15 -60 8 0 15 7 15 15 0 11 12 15 45 15 33 0
45 -4 45 -15 0 -8 9 -15 20 -15 21 0 28 24 10 35 -8 5 -7 11 0 20 6 8 10 24 8
37 -3 21 -8 23 -80 26 l-78 3 0 -61z m120 20 c0 -17 -7 -20 -45 -20 -38 0 -45
3 -45 20 0 17 7 20 45 20 38 0 45 -3 45 -20z"/>
<path d="M2570 100 l0 -60 70 0 c81 0 95 17 18 22 -74 4 -77 28 -4 28 31 0 56
5 56 10 0 6 -25 10 -55 10 -42 0 -55 3 -55 15 0 12 13 15 55 15 30 0 55 5 55
10 0 6 -30 10 -70 10 l-70 0 0 -60z"/>
<path d="M2730 100 l0 -60 65 0 c51 0 65 3 65 15 0 11 -12 15 -45 15 l-45 0 0
45 c0 38 -3 45 -20 45 -18 0 -20 -7 -20 -60z"/>
<path d="M2880 100 c0 -47 3 -60 15 -60 8 0 15 9 15 20 0 17 7 20 50 20 38 0
50 4 50 15 0 11 -12 15 -50 15 -38 0 -50 4 -50 15 0 11 12 15 50 15 28 0 50 5
50 10 0 6 -28 10 -65 10 l-65 0 0 -60z"/>
</g>
</svg>
